<svg  viewBox="0 0 87 28" fill="none" xmlns="http://www.w3.org/2000/svg">
<path d="M23 6.77778L12 1L1 6.77778M23 6.77778L12 12.5556M23 6.77778V21.2222L12 27M1 6.77778L12 12.5556M1 6.77778V21.2222L12 27M12 12.5556V27" stroke="#4A5568" stroke-width="2" stroke-linecap="round" stroke-linejoin="round"/>
<path d="M30 21V6.78125H35.1074C36.9368 6.78125 38.3268 7.11654 39.2773 7.78711C40.2344 8.45768 40.7129 9.43099 40.7129 10.707C40.7129 11.4427 40.5436 12.071 40.2051 12.5918C39.8665 13.1126 39.3685 13.4967 38.7109 13.7441C39.4531 13.9395 40.0228 14.304 40.4199 14.8379C40.8171 15.3717 41.0156 16.0228 41.0156 16.791C41.0156 18.1842 40.5729 19.2324 39.6875 19.9355C38.8086 20.6322 37.5033 20.987 35.7715 21H30ZM33.4277 14.9551V18.3633H35.6738C36.2923 18.3633 36.7676 18.2233 37.0996 17.9434C37.4316 17.6569 37.5977 17.2565 37.5977 16.7422C37.5977 15.5573 37.0085 14.9616 35.8301 14.9551H33.4277ZM33.4277 12.709H35.2148C35.9635 12.7025 36.4974 12.5658 36.8164 12.2988C37.1354 12.0319 37.2949 11.638 37.2949 11.1172C37.2949 10.5182 37.1224 10.0885 36.7773 9.82812C36.4323 9.5612 35.8757 9.42773 35.1074 9.42773H33.4277V12.709Z" fill="#4A5568"/>
<path d="M42.3438 15.6191C42.3438 14.5645 42.5488 13.627 42.959 12.8066C43.3691 11.9798 43.9583 11.3451 44.7266 10.9023C45.4948 10.4596 46.3965 10.2383 47.4316 10.2383C49.0137 10.2383 50.2604 10.7298 51.1719 11.7129C52.0833 12.6895 52.5391 14.0208 52.5391 15.707V15.8242C52.5391 17.4714 52.0801 18.7799 51.1621 19.75C50.2507 20.7135 49.0137 21.1953 47.4512 21.1953C45.9473 21.1953 44.7396 20.7461 43.8281 19.8477C42.9167 18.9427 42.4251 17.7188 42.3535 16.1758L42.3438 15.6191ZM45.6348 15.8242C45.6348 16.8008 45.7878 17.5169 46.0938 17.9727C46.3997 18.4284 46.8522 18.6562 47.4512 18.6562C48.623 18.6562 49.222 17.7546 49.248 15.9512V15.6191C49.248 13.7246 48.6426 12.7773 47.4316 12.7773C46.3314 12.7773 45.7357 13.5944 45.6445 15.2285L45.6348 15.8242Z" fill="#4A5568"/>
<path d="M58.0566 13.3438L59.5898 10.4336H63.0078L60.2246 15.5801L63.1445 21H59.707L58.0469 17.875L56.416 21H52.959L55.8887 15.5801L53.1152 10.4336H56.5723L58.0566 13.3438Z" fill="#4A5568"/>
<path d="M67.5391 21H64.2383V10.4336H67.5391V21ZM64.043 7.70898C64.043 7.24023 64.2122 6.85612 64.5508 6.55664C64.8893 6.25716 65.3288 6.10742 65.8691 6.10742C66.4095 6.10742 66.849 6.25716 67.1875 6.55664C67.526 6.85612 67.6953 7.24023 67.6953 7.70898C67.6953 8.17773 67.526 8.56185 67.1875 8.86133C66.849 9.16081 66.4095 9.31055 65.8691 9.31055C65.3288 9.31055 64.8893 9.16081 64.5508 8.86133C64.2122 8.56185 64.043 8.17773 64.043 7.70898Z" fill="#4A5568"/>
<path d="M70.3027 21V12.7188H68.7695V10.4336H70.3027V9.59375C70.3027 8.38932 70.6576 7.45508 71.3672 6.79102C72.0768 6.12695 73.0729 5.79492 74.3555 5.79492C74.8242 5.79492 75.3385 5.86328 75.8984 6L75.9082 8.42188C75.7064 8.36328 75.4362 8.33398 75.0977 8.33398C74.1016 8.33398 73.6035 8.76367 73.6035 9.62305V10.4336H75.6641V12.7188H73.6035V21H70.3027Z" fill="#4A5568"/>
<path d="M81.0449 16.3906L82.8027 10.4336H86.3281L82.0215 22.7676L81.8359 23.2168C81.224 24.584 80.1432 25.2676 78.5938 25.2676C78.1641 25.2676 77.7116 25.2025 77.2363 25.0723V22.7188H77.666C78.1283 22.7188 78.4798 22.6504 78.7207 22.5137C78.9681 22.3835 79.1504 22.1458 79.2676 21.8008L79.5312 21.0977L75.8594 10.4336H79.375L81.0449 16.3906Z" fill="#4A5568"/>
</svg>
