<svg  viewBox="0 0 56 20" fill="none" xmlns="http://www.w3.org/2000/svg">
<path d="M0.771484 9.63867C0.771484 8.01107 1.14909 6.70573 1.9043 5.72266C2.65951 4.73307 3.67188 4.23828 4.94141 4.23828C6.0612 4.23828 6.96615 4.62891 7.65625 5.41016V0H10.0293V15H7.88086L7.76367 13.9062C7.05404 14.7656 6.10677 15.1953 4.92188 15.1953C3.6849 15.1953 2.68229 14.6973 1.91406 13.7012C1.15234 12.7051 0.771484 11.3509 0.771484 9.63867ZM3.14453 9.84375C3.14453 10.918 3.34961 11.7578 3.75977 12.3633C4.17643 12.9622 4.76562 13.2617 5.52734 13.2617C6.4974 13.2617 7.20703 12.8288 7.65625 11.9629V7.45117C7.22005 6.60482 6.51693 6.18164 5.54688 6.18164C4.77865 6.18164 4.1862 6.48763 3.76953 7.09961C3.35286 7.70508 3.14453 8.61979 3.14453 9.84375Z" fill="#4A5568"/>
<path d="M18.0371 6.60156C17.7246 6.54948 17.4023 6.52344 17.0703 6.52344C15.9831 6.52344 15.2507 6.9401 14.873 7.77344V15H12.5V4.43359H14.7656L14.8242 5.61523C15.3971 4.69727 16.1914 4.23828 17.207 4.23828C17.5456 4.23828 17.8255 4.28385 18.0469 4.375L18.0371 6.60156Z" fill="#4A5568"/>
<path d="M18.7402 9.61914C18.7402 8.58398 18.9453 7.65299 19.3555 6.82617C19.7656 5.99284 20.3418 5.35482 21.084 4.91211C21.8262 4.46289 22.679 4.23828 23.6426 4.23828C25.0684 4.23828 26.224 4.69727 27.1094 5.61523C28.0013 6.5332 28.4831 7.75065 28.5547 9.26758L28.5645 9.82422C28.5645 10.8659 28.3626 11.7969 27.959 12.6172C27.5618 13.4375 26.9889 14.0723 26.2402 14.5215C25.498 14.9707 24.6387 15.1953 23.6621 15.1953C22.1712 15.1953 20.9766 14.7005 20.0781 13.7109C19.1862 12.7148 18.7402 11.39 18.7402 9.73633V9.61914ZM21.1133 9.82422C21.1133 10.9115 21.3379 11.7643 21.7871 12.3828C22.2363 12.9948 22.8613 13.3008 23.6621 13.3008C24.4629 13.3008 25.0846 12.9883 25.5273 12.3633C25.9766 11.7383 26.2012 10.8236 26.2012 9.61914C26.2012 8.55143 25.9701 7.70508 25.5078 7.08008C25.0521 6.45508 24.4303 6.14258 23.6426 6.14258C22.8678 6.14258 22.2526 6.45182 21.7969 7.07031C21.3411 7.68229 21.1133 8.60026 21.1133 9.82422Z" fill="#4A5568"/>
<path d="M39.9512 9.81445C39.9512 11.4421 39.5801 12.7474 38.8379 13.7305C38.1022 14.707 37.1061 15.1953 35.8496 15.1953C34.7819 15.1953 33.9193 14.8242 33.2617 14.082V19.0625H30.4395V4.43359H33.0566L33.1543 5.46875C33.8379 4.64844 34.7298 4.23828 35.8301 4.23828C37.1322 4.23828 38.1445 4.72005 38.8672 5.68359C39.5898 6.64714 39.9512 7.97526 39.9512 9.66797V9.81445ZM37.1289 9.60938C37.1289 8.6263 36.9531 7.86784 36.6016 7.33398C36.2565 6.80013 35.752 6.5332 35.0879 6.5332C34.2025 6.5332 33.5938 6.87174 33.2617 7.54883V11.875C33.6068 12.5716 34.222 12.9199 35.1074 12.9199C36.4551 12.9199 37.1289 11.8164 37.1289 9.60938Z" fill="#4A5568"/>
<path d="M47.7637 12.1289C47.7637 11.7057 47.5879 11.3835 47.2363 11.1621C46.8913 10.9408 46.3151 10.7454 45.5078 10.5762C44.7005 10.4069 44.0267 10.1921 43.4863 9.93164C42.3014 9.35872 41.709 8.52865 41.709 7.44141C41.709 6.52995 42.0931 5.76823 42.8613 5.15625C43.6296 4.54427 44.6061 4.23828 45.791 4.23828C47.054 4.23828 48.0729 4.55078 48.8477 5.17578C49.6289 5.80078 50.0195 6.61133 50.0195 7.60742H47.6465C47.6465 7.15169 47.4772 6.77409 47.1387 6.47461C46.8001 6.16862 46.3509 6.01562 45.791 6.01562C45.2702 6.01562 44.8438 6.13607 44.5117 6.37695C44.1862 6.61784 44.0234 6.9401 44.0234 7.34375C44.0234 7.70833 44.1764 7.99154 44.4824 8.19336C44.7884 8.39518 45.4069 8.60026 46.3379 8.80859C47.2689 9.01042 47.998 9.25456 48.5254 9.54102C49.0592 9.82096 49.4531 10.1595 49.707 10.5566C49.9674 10.9538 50.0977 11.4355 50.0977 12.002C50.0977 12.9525 49.7038 13.724 48.916 14.3164C48.1283 14.9023 47.0964 15.1953 45.8203 15.1953C44.9544 15.1953 44.1829 15.0391 43.5059 14.7266C42.8288 14.4141 42.3014 13.9844 41.9238 13.4375C41.5462 12.8906 41.3574 12.3014 41.3574 11.6699H43.6621C43.6947 12.2298 43.9062 12.6628 44.2969 12.9688C44.6875 13.2682 45.2051 13.418 45.8496 13.418C46.4746 13.418 46.9499 13.3008 47.2754 13.0664C47.6009 12.8255 47.7637 12.513 47.7637 12.1289Z" fill="#4A5568"/>
<path d="M53.6523 12.5C54.0951 12.5 54.4368 12.627 54.6777 12.8809C54.9186 13.1283 55.0391 13.4408 55.0391 13.8184C55.0391 14.1895 54.9186 14.4987 54.6777 14.7461C54.4368 14.987 54.0951 15.1074 53.6523 15.1074C53.2292 15.1074 52.8939 14.987 52.6465 14.7461C52.3991 14.5052 52.2754 14.196 52.2754 13.8184C52.2754 13.4408 52.3958 13.1283 52.6367 12.8809C52.8776 12.627 53.2161 12.5 53.6523 12.5Z" fill="#4A5568"/>
</svg>
