<svg  viewBox="0 0 115 26" fill="none" xmlns="http://www.w3.org/2000/svg">
<path d="M35.2559 20V10.8301H33.5859V9.43359H35.2559V8.34961C35.2559 7.2168 35.5586 6.34115 36.1641 5.72266C36.7695 5.10417 37.6257 4.79492 38.7324 4.79492C39.1491 4.79492 39.5625 4.85026 39.9727 4.96094L39.875 6.42578C39.569 6.36719 39.2435 6.33789 38.8984 6.33789C38.3125 6.33789 37.86 6.51042 37.541 6.85547C37.222 7.19401 37.0625 7.68229 37.0625 8.32031V9.43359H39.3184V10.8301H37.0625V20H35.2559Z" fill="#4A5568"/>
<path d="M45.4707 20.1953C44.0384 20.1953 42.873 19.7266 41.9746 18.7891C41.0762 17.8451 40.627 16.5853 40.627 15.0098V14.6777C40.627 13.6296 40.8255 12.6953 41.2227 11.875C41.6263 11.0482 42.1862 10.4036 42.9023 9.94141C43.625 9.47266 44.4062 9.23828 45.2461 9.23828C46.6198 9.23828 47.6875 9.69076 48.4492 10.5957C49.2109 11.5007 49.5918 12.7962 49.5918 14.4824V15.2344H42.4336C42.4596 16.276 42.7624 17.1191 43.3418 17.7637C43.9277 18.4017 44.6699 18.7207 45.5684 18.7207C46.2064 18.7207 46.7467 18.5905 47.1895 18.3301C47.6322 18.0697 48.0195 17.7246 48.3516 17.2949L49.4551 18.1543C48.5697 19.515 47.2415 20.1953 45.4707 20.1953ZM45.2461 10.7227C44.5169 10.7227 43.9049 10.9896 43.4102 11.5234C42.9154 12.0508 42.6094 12.793 42.4922 13.75H47.7852V13.6133C47.7331 12.6953 47.4857 11.9857 47.043 11.4844C46.6003 10.9766 46.0013 10.7227 45.2461 10.7227Z" fill="#4A5568"/>
<path d="M56.0762 20.1953C54.6439 20.1953 53.4785 19.7266 52.5801 18.7891C51.6816 17.8451 51.2324 16.5853 51.2324 15.0098V14.6777C51.2324 13.6296 51.431 12.6953 51.8281 11.875C52.2318 11.0482 52.7917 10.4036 53.5078 9.94141C54.2305 9.47266 55.0117 9.23828 55.8516 9.23828C57.2253 9.23828 58.293 9.69076 59.0547 10.5957C59.8164 11.5007 60.1973 12.7962 60.1973 14.4824V15.2344H53.0391C53.0651 16.276 53.3678 17.1191 53.9473 17.7637C54.5332 18.4017 55.2754 18.7207 56.1738 18.7207C56.8118 18.7207 57.3522 18.5905 57.7949 18.3301C58.2376 18.0697 58.625 17.7246 58.957 17.2949L60.0605 18.1543C59.1751 19.515 57.847 20.1953 56.0762 20.1953ZM55.8516 10.7227C55.1224 10.7227 54.5104 10.9896 54.0156 11.5234C53.5208 12.0508 53.2148 12.793 53.0977 13.75H58.3906V13.6133C58.3385 12.6953 58.0911 11.9857 57.6484 11.4844C57.2057 10.9766 56.6068 10.7227 55.8516 10.7227Z" fill="#4A5568"/>
<path d="M61.8574 14.6289C61.8574 13.0078 62.2415 11.7057 63.0098 10.7227C63.778 9.73307 64.7839 9.23828 66.0273 9.23828C67.2643 9.23828 68.2441 9.66146 68.9668 10.5078V5H70.7734V20H69.1133L69.0254 18.8672C68.3027 19.7526 67.2969 20.1953 66.0078 20.1953C64.7839 20.1953 63.7845 19.694 63.0098 18.6914C62.2415 17.6888 61.8574 16.3802 61.8574 14.7656V14.6289ZM63.6641 14.834C63.6641 16.0319 63.9115 16.9694 64.4062 17.6465C64.901 18.3236 65.5846 18.6621 66.457 18.6621C67.6029 18.6621 68.4395 18.1478 68.9668 17.1191V12.2656C68.4264 11.2695 67.5964 10.7715 66.4766 10.7715C65.5911 10.7715 64.901 11.1133 64.4062 11.7969C63.9115 12.4805 63.6641 13.4928 63.6641 14.834Z" fill="#4A5568"/>
<path d="M82.5312 14.834C82.5312 16.4486 82.1602 17.7474 81.418 18.7305C80.6758 19.707 79.6797 20.1953 78.4297 20.1953C77.0951 20.1953 76.0632 19.7233 75.334 18.7793L75.2461 20H73.5859V5H75.3926V10.5957C76.1217 9.69076 77.1276 9.23828 78.4102 9.23828C79.6927 9.23828 80.6986 9.72331 81.4277 10.6934C82.1634 11.6634 82.5312 12.9915 82.5312 14.6777V14.834ZM80.7246 14.6289C80.7246 13.3984 80.487 12.4479 80.0117 11.7773C79.5365 11.1068 78.8529 10.7715 77.9609 10.7715C76.7695 10.7715 75.9134 11.3249 75.3926 12.4316V17.002C75.946 18.1087 76.8086 18.6621 77.9805 18.6621C78.8464 18.6621 79.5202 18.3268 80.002 17.6562C80.4837 16.9857 80.7246 15.9766 80.7246 14.6289Z" fill="#4A5568"/>
<path d="M91.3398 20C91.2357 19.7917 91.151 19.4206 91.0859 18.8867C90.2461 19.7591 89.2435 20.1953 88.0781 20.1953C87.0365 20.1953 86.1803 19.9023 85.5098 19.3164C84.8457 18.724 84.5137 17.9753 84.5137 17.0703C84.5137 15.9701 84.9303 15.1172 85.7637 14.5117C86.6035 13.8997 87.7819 13.5938 89.2988 13.5938H91.0566V12.7637C91.0566 12.1322 90.8678 11.6309 90.4902 11.2598C90.1126 10.8822 89.556 10.6934 88.8203 10.6934C88.1758 10.6934 87.6354 10.8561 87.1992 11.1816C86.763 11.5072 86.5449 11.901 86.5449 12.3633H84.7285C84.7285 11.8359 84.9141 11.3281 85.2852 10.8398C85.6628 10.3451 86.1706 9.95443 86.8086 9.66797C87.4531 9.38151 88.1595 9.23828 88.9277 9.23828C90.1452 9.23828 91.099 9.54427 91.7891 10.1562C92.4792 10.7617 92.8372 11.5983 92.8633 12.666V17.5293C92.8633 18.4993 92.987 19.2708 93.2344 19.8438V20H91.3398ZM88.3418 18.623C88.9082 18.623 89.4453 18.4766 89.9531 18.1836C90.4609 17.8906 90.8288 17.5098 91.0566 17.041V14.873H89.6406C87.4271 14.873 86.3203 15.5208 86.3203 16.8164C86.3203 17.3828 86.5091 17.8255 86.8867 18.1445C87.2643 18.4635 87.7493 18.623 88.3418 18.623Z" fill="#4A5568"/>
<path d="M99.9336 18.7207C100.578 18.7207 101.141 18.5254 101.623 18.1348C102.105 17.7441 102.372 17.2559 102.424 16.6699H104.133C104.1 17.2754 103.892 17.8516 103.508 18.3984C103.124 18.9453 102.609 19.3815 101.965 19.707C101.327 20.0326 100.65 20.1953 99.9336 20.1953C98.4948 20.1953 97.349 19.7168 96.4961 18.7598C95.6497 17.7962 95.2266 16.4811 95.2266 14.8145V14.5117C95.2266 13.4831 95.4154 12.5684 95.793 11.7676C96.1706 10.9668 96.7109 10.3451 97.4141 9.90234C98.1237 9.45964 98.9603 9.23828 99.9238 9.23828C101.109 9.23828 102.092 9.5931 102.873 10.3027C103.661 11.0124 104.081 11.9336 104.133 13.0664H102.424C102.372 12.3828 102.111 11.8229 101.643 11.3867C101.18 10.944 100.607 10.7227 99.9238 10.7227C99.0059 10.7227 98.293 11.0547 97.7852 11.7188C97.2839 12.3763 97.0332 13.3301 97.0332 14.5801V14.9219C97.0332 16.1393 97.2839 17.0768 97.7852 17.7344C98.2865 18.3919 99.0026 18.7207 99.9336 18.7207Z" fill="#4A5568"/>
<path d="M109.113 15.1074L107.98 16.2891V20H106.174V5H107.98V14.0723L108.947 12.9102L112.238 9.43359H114.436L110.324 13.8477L114.914 20H112.795L109.113 15.1074Z" fill="#4A5568"/>
<path d="M19.6667 6.33333H22.3333C23.0406 6.33333 23.7189 6.61429 24.219 7.11438C24.719 7.61448 25 8.29276 25 9V17C25 17.7072 24.719 18.3855 24.219 18.8856C23.7189 19.3857 23.0406 19.6667 22.3333 19.6667H19.6667V25L14.3333 19.6667H9C8.64977 19.667 8.30292 19.5982 7.97938 19.4641C7.65583 19.33 7.36197 19.1333 7.11467 18.8853M7.11467 18.8853L11.6667 14.3333H17C17.7072 14.3333 18.3855 14.0524 18.8856 13.5523C19.3857 13.0522 19.6667 12.3739 19.6667 11.6667V3.66667C19.6667 2.95942 19.3857 2.28115 18.8856 1.78105C18.3855 1.28095 17.7072 1 17 1H3.66667C2.95942 1 2.28115 1.28095 1.78105 1.78105C1.28095 2.28115 1 2.95942 1 3.66667V11.6667C1 12.3739 1.28095 13.0522 1.78105 13.5523C2.28115 14.0524 2.95942 14.3333 3.66667 14.3333H6.33333V19.6667L7.11467 18.8853Z" stroke="#4A5568" stroke-width="2" stroke-linecap="round" stroke-linejoin="round"/>
</svg>
