<svg  viewBox="0 0 87 27" fill="none" xmlns="http://www.w3.org/2000/svg">
<path d="M9.46875 16.8242C9.46875 18.4583 9.09766 19.7637 8.35547 20.7402C7.61328 21.7103 6.61719 22.1953 5.36719 22.1953C4.20833 22.1953 3.2806 21.8145 2.58398 21.0527V26.0625H0.210938V11.4336H2.39844L2.49609 12.5078C3.19271 11.6615 4.13997 11.2383 5.33789 11.2383C6.62695 11.2383 7.63607 11.7201 8.36523 12.6836C9.10091 13.6406 9.46875 14.972 9.46875 16.6777V16.8242ZM7.10547 16.6191C7.10547 15.5645 6.89388 14.7279 6.4707 14.1094C6.05404 13.4909 5.45508 13.1816 4.67383 13.1816C3.70378 13.1816 3.00716 13.582 2.58398 14.3828V19.0703C3.01367 19.8906 3.7168 20.3008 4.69336 20.3008C5.44857 20.3008 6.03776 19.998 6.46094 19.3926C6.89062 18.7806 7.10547 17.8561 7.10547 16.6191Z" fill="#fff"/>
<path d="M17.7988 22C17.6947 21.7982 17.6035 21.4694 17.5254 21.0137C16.7702 21.8014 15.8457 22.1953 14.752 22.1953C13.6908 22.1953 12.8249 21.8926 12.1543 21.2871C11.4837 20.6816 11.1484 19.9329 11.1484 19.041C11.1484 17.9147 11.5651 17.0521 12.3984 16.4531C13.2383 15.8477 14.4362 15.5449 15.9922 15.5449H17.4473V14.8516C17.4473 14.3047 17.2943 13.8685 16.9883 13.543C16.6823 13.2109 16.2168 13.0449 15.5918 13.0449C15.0514 13.0449 14.6087 13.1816 14.2637 13.4551C13.9186 13.722 13.7461 14.0638 13.7461 14.4805H11.373C11.373 13.901 11.5651 13.3607 11.9492 12.8594C12.3333 12.3516 12.8542 11.9544 13.5117 11.668C14.1758 11.3815 14.9147 11.2383 15.7285 11.2383C16.9655 11.2383 17.9518 11.5508 18.6875 12.1758C19.4232 12.7943 19.8008 13.6667 19.8203 14.793V19.5586C19.8203 20.5091 19.9538 21.2676 20.2207 21.834V22H17.7988ZM15.1914 20.291C15.6602 20.291 16.0996 20.1771 16.5098 19.9492C16.9264 19.7214 17.2389 19.4154 17.4473 19.0312V17.0391H16.168C15.2891 17.0391 14.6283 17.1921 14.1855 17.498C13.7428 17.804 13.5215 18.237 13.5215 18.7969C13.5215 19.2526 13.6712 19.6172 13.9707 19.8906C14.2767 20.1576 14.6836 20.291 15.1914 20.291Z" fill="#fff"/>
<path d="M25.2793 8.86523V11.4336H27.1445V13.1914H25.2793V19.0898C25.2793 19.4935 25.3574 19.7865 25.5137 19.9688C25.6764 20.1445 25.9629 20.2324 26.373 20.2324C26.6465 20.2324 26.9232 20.1999 27.2031 20.1348V21.9707C26.6628 22.1204 26.1419 22.1953 25.6406 22.1953C23.8177 22.1953 22.9062 21.1895 22.9062 19.1777V13.1914H21.168V11.4336H22.9062V8.86523H25.2793Z" fill="#fff"/>
<path d="M31.3047 12.5859C32.0794 11.6875 33.0592 11.2383 34.2441 11.2383C36.4967 11.2383 37.6393 12.5241 37.6719 15.0957V22H35.2988V15.1836C35.2988 14.4544 35.1393 13.9401 34.8203 13.6406C34.5078 13.3346 34.0456 13.1816 33.4336 13.1816C32.4831 13.1816 31.7734 13.6048 31.3047 14.4512V22H28.9316V7H31.3047V12.5859Z" fill="#fff"/>
<path d="M49.3613 18.7285L51.041 11.4336H53.3555L50.4746 22H48.5215L46.2559 14.7441L44.0293 22H42.0762L39.1855 11.4336H41.5L43.209 18.6504L45.377 11.4336H47.1641L49.3613 18.7285Z" fill="#fff"/>
<path d="M61.2559 22C61.1517 21.7982 61.0605 21.4694 60.9824 21.0137C60.2272 21.8014 59.3027 22.1953 58.209 22.1953C57.1478 22.1953 56.2819 21.8926 55.6113 21.2871C54.9408 20.6816 54.6055 19.9329 54.6055 19.041C54.6055 17.9147 55.0221 17.0521 55.8555 16.4531C56.6953 15.8477 57.8932 15.5449 59.4492 15.5449H60.9043V14.8516C60.9043 14.3047 60.7513 13.8685 60.4453 13.543C60.1393 13.2109 59.6738 13.0449 59.0488 13.0449C58.5085 13.0449 58.0658 13.1816 57.7207 13.4551C57.3757 13.722 57.2031 14.0638 57.2031 14.4805H54.8301C54.8301 13.901 55.0221 13.3607 55.4062 12.8594C55.7904 12.3516 56.3112 11.9544 56.9688 11.668C57.6328 11.3815 58.3717 11.2383 59.1855 11.2383C60.4225 11.2383 61.4089 11.5508 62.1445 12.1758C62.8802 12.7943 63.2578 13.6667 63.2773 14.793V19.5586C63.2773 20.5091 63.4108 21.2676 63.6777 21.834V22H61.2559ZM58.6484 20.291C59.1172 20.291 59.5566 20.1771 59.9668 19.9492C60.3835 19.7214 60.696 19.4154 60.9043 19.0312V17.0391H59.625C58.7461 17.0391 58.0853 17.1921 57.6426 17.498C57.1999 17.804 56.9785 18.237 56.9785 18.7969C56.9785 19.2526 57.1283 19.6172 57.4277 19.8906C57.7337 20.1576 58.1406 20.291 58.6484 20.291Z" fill="#fff"/>
<path d="M69.3027 18.6016L71.4512 11.4336H73.9805L69.7812 23.6016C69.1367 25.3789 68.043 26.2676 66.5 26.2676C66.1549 26.2676 65.7741 26.209 65.3574 26.0918V24.2559L65.8066 24.2852C66.4056 24.2852 66.8548 24.1745 67.1543 23.9531C67.4603 23.7383 67.7012 23.3737 67.877 22.8594L68.2188 21.9512L64.5078 11.4336H67.0664L69.3027 18.6016Z" fill="#fff"/>
<path d="M73.6603 6L80.5885 2M80.5885 2L84.5885 8.9282M80.5885 2L77.6603 12.9282L72.1962 11.4641L70 19.6603" stroke="#fff" stroke-width="2" stroke-linecap="round" stroke-linejoin="round"/>
</svg>
