<svg  viewBox="0 0 84 18" fill="none" xmlns="http://www.w3.org/2000/svg">
<path d="M31.0156 10.7578C31.0156 10.3672 30.8672 10.0651 30.5703 9.85156C30.2786 9.63281 29.7656 9.44531 29.0312 9.28906C28.3021 9.13281 27.7214 8.94531 27.2891 8.72656C26.862 8.50781 26.5443 8.2474 26.3359 7.94531C26.1328 7.64323 26.0312 7.28385 26.0312 6.86719C26.0312 6.17448 26.3229 5.58854 26.9062 5.10938C27.4948 4.63021 28.2448 4.39062 29.1562 4.39062C30.1146 4.39062 30.8906 4.63802 31.4844 5.13281C32.0833 5.6276 32.3828 6.26042 32.3828 7.03125H30.9297C30.9297 6.63542 30.7604 6.29427 30.4219 6.00781C30.0885 5.72135 29.6667 5.57812 29.1562 5.57812C28.6302 5.57812 28.2188 5.69271 27.9219 5.92188C27.625 6.15104 27.4766 6.45052 27.4766 6.82031C27.4766 7.16927 27.6146 7.43229 27.8906 7.60938C28.1667 7.78646 28.6641 7.95573 29.3828 8.11719C30.1068 8.27865 30.6927 8.47135 31.1406 8.69531C31.5885 8.91927 31.9193 9.1901 32.1328 9.50781C32.3516 9.82031 32.4609 10.2031 32.4609 10.6562C32.4609 11.4115 32.1589 12.0182 31.5547 12.4766C30.9505 12.9297 30.1667 13.1562 29.2031 13.1562C28.526 13.1562 27.9271 13.0365 27.4062 12.7969C26.8854 12.5573 26.4766 12.224 26.1797 11.7969C25.888 11.3646 25.7422 10.8984 25.7422 10.3984H27.1875C27.2135 10.8828 27.4062 11.2682 27.7656 11.5547C28.1302 11.8359 28.6094 11.9766 29.2031 11.9766C29.75 11.9766 30.1875 11.8672 30.5156 11.6484C30.849 11.4245 31.0156 11.1276 31.0156 10.7578Z" fill="#fff"/>
<path d="M41.5 8.86719C41.5 10.1589 41.2031 11.1979 40.6094 11.9844C40.0156 12.7656 39.2188 13.1562 38.2188 13.1562C37.151 13.1562 36.3255 12.7786 35.7422 12.0234L35.6719 13H34.3438V1H35.7891V5.47656C36.3724 4.7526 37.1771 4.39062 38.2031 4.39062C39.2292 4.39062 40.0339 4.77865 40.6172 5.55469C41.2057 6.33073 41.5 7.39323 41.5 8.74219V8.86719ZM40.0547 8.70312C40.0547 7.71875 39.8646 6.95833 39.4844 6.42188C39.1042 5.88542 38.5573 5.61719 37.8438 5.61719C36.8906 5.61719 36.2057 6.0599 35.7891 6.94531V10.6016C36.2318 11.487 36.9219 11.9297 37.8594 11.9297C38.5521 11.9297 39.0911 11.6615 39.4766 11.125C39.862 10.5885 40.0547 9.78125 40.0547 8.70312Z" fill="#fff"/>
<path d="M48.5469 13C48.4635 12.8333 48.3958 12.5365 48.3438 12.1094C47.6719 12.8073 46.8698 13.1562 45.9375 13.1562C45.1042 13.1562 44.4193 12.9219 43.8828 12.4531C43.3516 11.9792 43.0859 11.3802 43.0859 10.6562C43.0859 9.77604 43.4193 9.09375 44.0859 8.60938C44.7578 8.11979 45.7005 7.875 46.9141 7.875H48.3203V7.21094C48.3203 6.70573 48.1693 6.30469 47.8672 6.00781C47.5651 5.70573 47.1198 5.55469 46.5312 5.55469C46.0156 5.55469 45.5833 5.6849 45.2344 5.94531C44.8854 6.20573 44.7109 6.52083 44.7109 6.89062H43.2578C43.2578 6.46875 43.4062 6.0625 43.7031 5.67188C44.0052 5.27604 44.4115 4.96354 44.9219 4.73438C45.4375 4.50521 46.0026 4.39062 46.6172 4.39062C47.5911 4.39062 48.3542 4.63542 48.9062 5.125C49.4583 5.60938 49.7448 6.27865 49.7656 7.13281V11.0234C49.7656 11.7995 49.8646 12.4167 50.0625 12.875V13H48.5469ZM46.1484 11.8984C46.6016 11.8984 47.0312 11.7812 47.4375 11.5469C47.8438 11.3125 48.138 11.0078 48.3203 10.6328V8.89844H47.1875C45.4167 8.89844 44.5312 9.41667 44.5312 10.4531C44.5312 10.9062 44.6823 11.2604 44.9844 11.5156C45.2865 11.7708 45.6745 11.8984 46.1484 11.8984Z" fill="#fff"/>
<path d="M53.6016 13H52.1562V1H53.6016V13Z" fill="#fff"/>
<path d="M63.0781 8.86719C63.0781 10.1589 62.7812 11.1979 62.1875 11.9844C61.5938 12.7656 60.7969 13.1562 59.7969 13.1562C58.7292 13.1562 57.9036 12.7786 57.3203 12.0234L57.25 13H55.9219V1H57.3672V5.47656C57.9505 4.7526 58.7552 4.39062 59.7812 4.39062C60.8073 4.39062 61.612 4.77865 62.1953 5.55469C62.7839 6.33073 63.0781 7.39323 63.0781 8.74219V8.86719ZM61.6328 8.70312C61.6328 7.71875 61.4427 6.95833 61.0625 6.42188C60.6823 5.88542 60.1354 5.61719 59.4219 5.61719C58.4688 5.61719 57.7839 6.0599 57.3672 6.94531V10.6016C57.8099 11.487 58.5 11.9297 59.4375 11.9297C60.1302 11.9297 60.6693 11.6615 61.0547 11.125C61.4401 10.5885 61.6328 9.78125 61.6328 8.70312Z" fill="#fff"/>
<path d="M68.4141 13.1562C67.2682 13.1562 66.3359 12.7812 65.6172 12.0312C64.8984 11.276 64.5391 10.2682 64.5391 9.00781V8.74219C64.5391 7.90365 64.6979 7.15625 65.0156 6.5C65.3385 5.83854 65.7865 5.32292 66.3594 4.95312C66.9375 4.57812 67.5625 4.39062 68.2344 4.39062C69.3333 4.39062 70.1875 4.7526 70.7969 5.47656C71.4062 6.20052 71.7109 7.23698 71.7109 8.58594V9.1875H65.9844C66.0052 10.0208 66.2474 10.6953 66.7109 11.2109C67.1797 11.7214 67.7734 11.9766 68.4922 11.9766C69.0026 11.9766 69.4349 11.8724 69.7891 11.6641C70.1432 11.4557 70.4531 11.1797 70.7188 10.8359L71.6016 11.5234C70.8932 12.612 69.8307 13.1562 68.4141 13.1562ZM68.2344 5.57812C67.651 5.57812 67.1615 5.79167 66.7656 6.21875C66.3698 6.64062 66.125 7.23438 66.0312 8H70.2656V7.89062C70.224 7.15625 70.026 6.58854 69.6719 6.1875C69.3177 5.78125 68.8385 5.57812 68.2344 5.57812Z" fill="#fff"/>
<path d="M80.875 11.0078L82.5 4.54688H83.9453L81.4844 13H80.3125L78.2578 6.59375L76.2578 13H75.0859L72.6328 4.54688H74.0703L75.7344 10.875L77.7031 4.54688H78.8672L80.875 11.0078Z" fill="#fff"/>
<path d="M17.6039 12.428C17.3247 12.1488 16.9691 11.9584 16.5819 11.881L14.1949 11.404C12.8866 11.1424 11.5283 11.3243 10.3349 11.921L10.0169 12.079C8.82353 12.6757 7.46528 12.8576 6.15692 12.596L4.22592 12.21C3.90312 12.1455 3.5694 12.1617 3.25435 12.2571C2.93931 12.3525 2.65269 12.5242 2.41992 12.757M6.17592 1H14.1759L13.1759 2V7.172C13.176 7.70239 13.3868 8.21101 13.7619 8.586L18.7619 13.586C20.0219 14.846 19.1289 17 17.3469 17H3.00392C1.22192 17 0.32992 14.846 1.58992 13.586L6.58992 8.586C6.96502 8.21101 7.17581 7.70239 7.17592 7.172V2L6.17592 1Z" stroke="#fff" stroke-width="1.5" stroke-linecap="round" stroke-linejoin="round"/>
</svg>
