<svg data-v-423bf9ae="" xmlns="http://www.w3.org/2000/svg" viewBox="0 0 368 90" class="iconLeftSlogan"><!----><!----><!----><g data-v-423bf9ae="" id="2016e9e4-9186-4535-b0f7-12231eea5dde" fill="black" transform="matrix(5.71973320392212,0,0,5.71973320392212,108.45566922829462,-18.81792202271327)"><path d="M8.89 5.63L8.89 3.92L0.27 3.92L0.27 5.63L3.49 5.63L3.49 13.58L5.67 13.58L5.67 5.63ZM13.38 13.58L15.53 13.58C15.41 12.75 15.39 12.25 15.39 11.69L15.39 9.42C15.39 8.99 15.37 8.57 15.34 8.22C15.23 6.89 14.43 5.92 12.22 5.92C10.40 5.92 8.96 6.89 8.92 8.60L11.02 8.60C11.07 7.85 11.45 7.43 12.14 7.43C12.80 7.43 13.13 7.80 13.17 8.25C13.20 8.50 13.20 8.69 13.20 8.89L13.20 9.02L12.73 9.02C10.09 9.02 8.65 9.97 8.65 11.59C8.65 13.01 9.79 13.78 11.05 13.78C11.73 13.78 12.36 13.62 12.89 13.29L13.23 12.49ZM11.91 12.26C11.31 12.26 10.91 11.97 10.91 11.41C10.91 10.54 11.84 10.21 13.20 10.32L13.20 10.86C13.20 11.79 12.57 12.26 11.91 12.26ZM19.91 5.92C18.03 5.92 16.80 6.82 16.80 8.27C16.80 9.55 17.71 10.18 19.11 10.53C20.43 10.84 20.90 11.13 20.90 11.66C20.90 12.14 20.48 12.36 19.95 12.36C19.33 12.36 18.83 11.98 18.68 11.28L16.51 11.28C16.70 12.96 18.03 13.78 19.94 13.78C21.69 13.78 23.10 13.05 23.10 11.49C23.10 10.09 22.18 9.49 20.73 9.13C19.40 8.79 19.00 8.51 19.00 8.01C19.00 7.62 19.29 7.32 19.77 7.32C20.31 7.32 20.64 7.67 20.76 8.29L22.93 8.29C22.75 6.93 21.71 5.92 19.91 5.92ZM26.98 10.72L29.15 13.58L31.88 13.58L28.60 9.56L31.84 6.12L29.23 6.12L26.40 9.39L26.40 3.29L24.21 3.29L24.21 13.58L26.40 13.58L26.40 11.35ZM39.37 9.72C39.37 7.73 38.14 5.92 35.76 5.92C33.39 5.92 31.89 7.63 31.89 9.87C31.89 12.50 33.53 13.78 35.62 13.78C37.44 13.78 38.84 12.87 39.24 11.14L37.07 11.14C36.95 11.84 36.43 12.26 35.66 12.26C34.83 12.26 34.22 11.84 34.09 10.42L39.33 10.42C39.35 10.15 39.37 9.91 39.37 9.72ZM35.66 7.43C36.47 7.43 36.96 7.98 37.09 9.03L34.15 9.03C34.33 7.92 34.87 7.43 35.66 7.43ZM44.70 5.92C44.27 5.92 43.72 6.12 43.34 6.51L42.78 7.55L42.78 6.12L40.59 6.12L40.59 13.58L42.78 13.58L42.78 10.46C42.78 8.34 43.53 7.64 45.26 7.76L45.26 5.98C45.09 5.95 44.94 5.92 44.70 5.92Z"></path></g><!----><g data-v-423bf9ae="" id="96c4cac2-de91-492d-8cc9-0bdbc305b2f3" transform="matrix(2.8125,0,0,2.8125,0,0)" stroke="none" fill="black"><path d="M0 16.024L15.976 32 32 15.976 16.024 0 0 16.024zm15.989 7.323l-7.336-7.336 14.694-.022-7.358 7.358z"></path></g><!----><g data-v-423bf9ae="" id="bd051d6e-859f-47d1-ab58-e0a70916d12c" fill="black" transform="matrix(0.6022251050375745,0,0,0.6022251050375745,109.90364229576294,58.34990444151818)"><path d="M0.66 5.35L0.16 5.33L0.16 5.33Q0.28 4.17 0.36 3.08L0.36 3.08L8.44 3.08L8.44 3.08Q8.36 4.13 8.33 4.53L8.33 4.53L8.33 4.53Q8.29 5.26 8.27 5.32L8.27 5.32L7.77 5.30L7.77 5.30Q7.85 4.34 7.85 4.16L7.85 4.16L7.85 4.16Q7.85 3.88 7.71 3.79L7.71 3.79L7.71 3.79Q7.54 3.69 7.14 3.69L7.14 3.69L5.53 3.69L5.53 3.69Q5.02 3.69 4.90 3.79L4.90 3.79L4.90 3.79Q4.81 3.87 4.80 4.36L4.80 4.36L4.80 11.22L4.80 11.22Q4.80 11.66 4.94 11.76L4.94 11.76L4.94 11.76Q5.10 11.87 5.61 11.87L5.61 11.87L6.17 11.87L6.19 12.41L2.50 12.40L2.50 11.87L2.71 11.87L2.71 11.87Q3.38 11.87 3.53 11.79L3.53 11.79L3.53 11.79Q3.67 11.70 3.67 11.28L3.67 11.28L3.67 4.48L3.67 4.48Q3.67 3.92 3.57 3.80L3.57 3.80L3.57 3.80Q3.47 3.69 3.05 3.69L3.05 3.69L1.58 3.69L1.58 3.69Q1.39 3.69 1.33 3.71L1.33 3.71L1.33 3.71Q1.26 3.72 1.15 3.72L1.15 3.72L1.15 3.72Q1.12 3.72 1.00 3.79L1.00 3.79L1.00 3.79Q0.92 3.84 0.90 3.86L0.90 3.86L0.90 3.86Q0.87 3.88 0.83 3.99L0.83 3.99L0.83 3.99Q0.80 4.05 0.77 4.14L0.77 4.14L0.77 4.14Q0.75 4.21 0.72 4.36L0.72 4.36L0.72 4.36Q0.70 4.59 0.70 4.61L0.70 4.61L0.70 4.61Q0.70 4.80 0.68 4.95L0.68 4.95L0.68 4.95Q0.68 5.02 0.68 5.15L0.68 5.15L0.68 5.15Q0.67 5.29 0.66 5.35L0.66 5.35ZM16.52 3.64L16.13 3.64L16.14 3.08L19.36 3.08L19.36 3.08Q20.49 3.08 21.10 3.21L21.10 3.21L21.10 3.21Q21.74 3.37 22.20 3.75L22.20 3.75L22.20 3.75Q23.21 4.57 23.21 5.71L23.21 5.71L23.21 5.71Q23.21 6.43 22.74 7.04L22.74 7.04L22.74 7.04Q22.24 7.66 21.21 7.92L21.21 7.92L23.90 11.49L23.90 11.49Q24.21 11.87 24.50 11.87L24.50 11.87L25.10 11.87L25.13 12.41L23.10 12.41L20.10 8.10L19.93 8.10L19.93 8.10Q19.89 8.10 19.84 8.11L19.84 8.11L19.84 8.11Q19.78 8.11 19.77 8.11L19.77 8.11L19.77 8.11Q18.89 8.11 18.49 8.03L18.49 8.03L18.49 11.46L18.49 11.46Q18.49 11.76 18.63 11.81L18.63 11.81L18.63 11.81Q18.76 11.87 19.46 11.87L19.46 11.87L20.17 11.87L20.15 12.41L16.42 12.41L16.42 11.87L16.74 11.87L16.74 11.87Q17.21 11.87 17.27 11.81L17.27 11.81L17.27 11.81Q17.36 11.74 17.36 11.46L17.36 11.46L17.36 4.14L17.36 4.14Q17.36 3.82 17.17 3.73L17.17 3.73L17.17 3.73Q16.94 3.64 16.52 3.64L16.52 3.64ZM18.49 4.28L18.49 7.57L18.49 7.57Q18.68 7.70 19.39 7.71L19.39 7.71L19.39 7.71Q20.66 7.71 21.24 7.27L21.24 7.27L21.24 7.27Q21.83 6.84 21.83 5.92L21.83 5.92L21.83 5.92Q21.83 4.92 21.05 4.27L21.05 4.27L21.05 4.27Q20.30 3.64 18.92 3.64L18.92 3.64L18.92 3.64Q18.66 3.64 18.58 3.75L18.58 3.75L18.58 3.75Q18.50 3.84 18.49 4.28L18.49 4.28ZM32.89 12.41L32.88 11.87L33.05 11.87L33.05 11.87Q33.44 11.87 33.57 11.73L33.57 11.73L33.57 11.73Q33.69 11.57 34.03 10.83L34.03 10.83L34.94 8.82L35.51 7.53L35.51 7.53Q35.78 6.97 35.82 6.86L35.82 6.86L35.82 6.86Q35.89 6.70 35.94 6.60L35.94 6.60L35.94 6.60Q35.99 6.51 36.00 6.45L36.00 6.45L36.10 6.21L37.53 2.74L37.82 2.74L37.82 2.74Q38.68 4.98 40.87 10.25L40.87 10.25L40.87 10.25Q41.32 11.34 41.51 11.64L41.51 11.64L41.51 11.64Q41.64 11.87 42.08 11.87L42.08 11.87L42.29 11.87L42.28 12.41L39.09 12.41L39.10 11.87L39.52 11.87L39.52 11.87Q40.13 11.87 40.13 11.70L40.13 11.70L40.13 11.70Q40.13 11.63 40.00 11.27L40.00 11.27L38.96 8.72L35.71 8.72L34.60 11.18L34.60 11.18Q34.47 11.50 34.47 11.63L34.47 11.63L34.47 11.63Q34.47 11.79 34.56 11.83L34.56 11.83L34.56 11.83Q34.66 11.87 35.04 11.87L35.04 11.87L35.62 11.87L35.62 12.41L32.89 12.41ZM37.39 4.79L35.98 8.10L38.72 8.10L37.39 4.79ZM50.41 8.02L50.41 8.02L50.41 8.02Q50.41 6.86 50.88 5.83L50.88 5.83L50.88 5.83Q51.34 4.85 52.10 4.27L52.10 4.27L52.10 4.27Q52.84 3.69 53.74 3.37L53.74 3.37L53.74 3.37Q54.63 3.05 55.47 3.05L55.47 3.05L55.47 3.05Q56.34 3.05 57.01 3.16L57.01 3.16L57.01 3.16Q57.64 3.26 57.93 3.37L57.93 3.37L57.93 3.37Q58.24 3.48 58.28 3.48L58.28 3.48L58.28 3.48Q58.45 3.48 58.47 3.41L58.47 3.41L58.47 3.41Q58.50 3.33 58.50 3.09L58.50 3.09L58.50 2.97L59.03 2.97L59.03 2.97Q59.07 4.30 59.20 5.64L59.20 5.64L58.69 5.65L58.69 5.65Q58.67 5.40 58.65 5.26L58.65 5.26L58.65 5.26Q58.65 5.20 58.65 5.13L58.65 5.13L58.65 5.13Q58.64 5.07 58.63 5.02L58.63 5.02L58.63 5.02Q58.63 4.98 58.63 4.95L58.63 4.95L58.63 4.95Q58.60 4.84 58.60 4.74L58.60 4.74L58.60 4.74Q58.60 4.68 58.56 4.59L58.56 4.59L58.56 4.59Q58.56 4.57 58.53 4.55L58.53 4.55L58.53 4.55Q58.50 4.52 58.50 4.50L58.50 4.50L58.50 4.50Q58.47 4.44 58.40 4.41L58.40 4.41L58.40 4.41Q58.36 4.38 58.33 4.37L58.33 4.37L58.33 4.37Q58.30 4.36 58.28 4.35L58.28 4.35L58.28 4.35Q58.26 4.35 58.24 4.33L58.24 4.33L58.24 4.33Q58.21 4.31 58.17 4.29L58.17 4.29L58.17 4.29Q58.13 4.27 58.09 4.25L58.09 4.25L58.09 4.25Q57.87 4.16 57.84 4.14L57.84 4.14L57.84 4.14Q57.49 3.96 56.85 3.83L56.85 3.83L56.85 3.83Q56.18 3.71 55.51 3.71L55.51 3.71L55.51 3.71Q53.79 3.71 52.70 4.84L52.70 4.84L52.70 4.84Q51.59 5.99 51.60 7.62L51.60 7.62L51.60 7.62Q51.60 9.35 52.81 10.69L52.81 10.69L52.81 10.69Q54.02 12.02 55.84 12.02L55.84 12.02L55.84 12.02Q56.84 12.02 57.78 11.49L57.78 11.49L57.78 11.49Q58.73 10.94 58.76 10.58L58.76 10.58L58.80 9.41L59.29 9.41L59.21 11.45L59.21 11.45Q59.14 11.49 59.01 11.57L59.01 11.57L59.01 11.57Q58.96 11.60 58.50 11.85L58.50 11.85L58.50 11.85Q58.12 12.05 57.67 12.23L57.67 12.23L57.67 12.23Q57.31 12.39 56.66 12.51L56.66 12.51L56.66 12.51Q56.05 12.63 55.49 12.64L55.49 12.64L55.49 12.64Q53.11 12.64 51.75 11.39L51.75 11.39L51.75 11.39Q50.41 10.14 50.41 8.02ZM67.92 3.64L67.33 3.64L67.33 3.08L70.83 3.08L70.83 3.64L70.38 3.64L70.38 3.64Q69.98 3.64 69.88 3.73L69.88 3.73L69.88 3.73Q69.77 3.84 69.77 4.28L69.77 4.28L69.77 7.50L73.86 4.18L73.86 4.18Q74.20 3.89 74.20 3.77L74.20 3.77L74.20 3.77Q74.20 3.64 73.56 3.64L73.56 3.64L73.01 3.64L72.99 3.08L76.34 3.08L76.34 3.64L75.98 3.64L75.98 3.64Q75.55 3.64 75.34 3.76L75.34 3.76L75.34 3.76Q75.17 3.86 74.29 4.55L74.29 4.55L71.12 7.08L75.35 11.49L75.35 11.49Q75.71 11.87 75.95 11.87L75.95 11.87L76.77 11.87L76.74 12.41L74.54 12.41L70.28 7.74L69.77 8.16L69.77 11.22L69.77 11.22Q69.77 11.70 69.94 11.79L69.94 11.79L69.94 11.79Q70.10 11.87 70.87 11.87L70.87 11.87L71.18 11.87L71.18 12.41L67.59 12.41L67.58 11.87L67.96 11.87L67.96 11.87Q68.46 11.87 68.55 11.79L68.55 11.79L68.55 11.79Q68.63 11.70 68.63 11.25L68.63 11.25L68.63 4.14L68.63 4.14Q68.63 3.77 68.53 3.71L68.53 3.71L68.53 3.71Q68.42 3.64 67.92 3.64L67.92 3.64ZM94.21 3.64L94.21 3.64L94.23 3.08L97.36 3.08L97.36 3.64L97.08 3.64L97.08 3.64Q96.63 3.64 96.52 3.66L96.52 3.66L96.52 3.66Q96.35 3.71 96.35 3.82L96.35 3.82L96.35 3.82Q96.35 3.89 96.61 4.31L96.61 4.31L98.61 7.46L101.06 3.99L101.06 3.99Q101.14 3.83 101.14 3.82L101.14 3.82L101.14 3.82Q101.14 3.64 100.23 3.64L100.23 3.64L100.01 3.64L100.00 3.08L102.54 3.08L102.54 3.64L102.47 3.64L102.47 3.64Q102.12 3.64 101.98 3.72L101.98 3.72L101.98 3.72Q101.82 3.80 101.53 4.22L101.53 4.22L98.81 8.17L98.81 11.22L98.81 11.22Q98.81 11.66 98.92 11.77L98.92 11.77L98.92 11.77Q99.01 11.87 99.63 11.87L99.63 11.87L100.26 11.87L100.24 12.41L96.31 12.41L96.33 11.87L96.89 11.87L96.89 11.87Q97.42 11.87 97.55 11.79L97.55 11.79L97.55 11.79Q97.67 11.70 97.67 11.25L97.67 11.25L97.67 8.06L95.38 4.49L95.38 4.49Q94.96 3.84 94.83 3.73L94.83 3.73L94.83 3.73Q94.72 3.64 94.21 3.64ZM110.66 7.83L110.66 7.83L110.66 7.83Q110.66 6.62 111.06 5.68L111.06 5.68L111.06 5.68Q111.48 4.72 112.17 4.12L112.17 4.12L112.17 4.12Q112.86 3.51 113.72 3.19L113.72 3.19L113.72 3.19Q114.56 2.88 115.51 2.88L115.51 2.88L115.51 2.88Q116.77 2.88 117.82 3.40L117.82 3.40L117.82 3.40Q118.90 3.93 119.62 5.07L119.62 5.07L119.62 5.07Q120.31 6.17 120.32 7.75L120.32 7.75L120.32 7.75Q120.32 8.70 120.01 9.54L120.01 9.54L120.01 9.54Q119.70 10.38 119.10 11.10L119.10 11.10L119.10 11.10Q118.49 11.81 117.56 12.22L117.56 12.22L117.56 12.22Q116.59 12.63 115.40 12.64L115.40 12.64L115.40 12.64Q114.27 12.64 113.33 12.23L113.33 12.23L113.33 12.23Q112.40 11.83 111.84 11.14L111.84 11.14L111.84 11.14Q111.26 10.45 110.97 9.60L110.97 9.60L110.97 9.60Q110.66 8.72 110.66 7.83ZM111.92 7.38L111.92 7.38L111.92 7.38Q111.92 8.52 112.35 9.60L112.35 9.60L112.35 9.60Q112.75 10.64 113.68 11.33L113.68 11.33L113.68 11.33Q114.59 12.03 115.78 12.04L115.78 12.04L115.78 12.04Q117.15 12.04 118.09 11.01L118.09 11.01L118.09 11.01Q119.04 9.97 119.04 8.10L119.04 8.10L119.04 8.10Q119.04 5.99 117.88 4.72L117.88 4.72L117.88 4.72Q116.73 3.46 115.22 3.45L115.22 3.45L115.22 3.45Q114.70 3.45 114.16 3.65L114.16 3.65L114.16 3.65Q113.61 3.85 113.11 4.25L113.11 4.25L113.11 4.25Q112.56 4.68 112.24 5.48L112.24 5.48L112.24 5.48Q111.92 6.27 111.92 7.38ZM128.82 3.64L128.43 3.64L128.43 3.08L131.80 3.08L131.81 3.64L131.28 3.64L131.28 3.64Q130.85 3.64 130.69 3.73L130.69 3.73L130.69 3.73Q130.52 3.83 130.52 4.16L130.52 4.16L130.52 9.33L130.52 9.33Q130.52 9.63 130.55 9.78L130.55 9.78L130.55 9.78Q130.59 10.01 130.76 10.41L130.76 10.41L130.76 10.41Q130.93 10.80 131.22 11.09L131.22 11.09L131.22 11.09Q131.53 11.40 132.09 11.63L132.09 11.63L132.09 11.63Q132.67 11.85 133.44 11.85L133.44 11.85L133.44 11.85Q134.30 11.85 134.85 11.67L134.85 11.67L134.85 11.67Q135.41 11.48 135.71 11.22L135.71 11.22L135.71 11.22Q136.02 10.96 136.17 10.49L136.17 10.49L136.17 10.49Q136.34 9.95 136.34 9.66L136.34 9.66L136.34 9.66Q136.37 9.18 136.38 8.67L136.38 8.67L136.38 4.14L136.38 4.14Q136.38 3.81 136.23 3.72L136.23 3.72L136.23 3.72Q136.08 3.64 135.60 3.64L135.60 3.64L135.11 3.64L135.14 3.08L137.77 3.08L137.77 3.64L137.58 3.64L137.58 3.64Q137.26 3.64 137.15 3.75L137.15 3.75L137.15 3.75Q137.03 3.86 137.03 4.25L137.03 4.25L137.03 9.22L137.03 9.22Q137.03 12.67 133.44 12.67L133.44 12.67L133.44 12.67Q131.28 12.67 130.33 11.76L130.33 11.76L130.33 11.76Q129.39 10.86 129.39 9.41L129.39 9.41L129.39 4.14L129.39 4.14Q129.39 3.81 129.29 3.72L129.29 3.72L129.29 3.72Q129.18 3.64 128.82 3.64L128.82 3.64ZM145.84 3.64L145.46 3.64L145.47 3.08L148.69 3.08L148.69 3.08Q149.82 3.08 150.42 3.21L150.42 3.21L150.42 3.21Q151.07 3.37 151.53 3.75L151.53 3.75L151.53 3.75Q152.54 4.57 152.54 5.71L152.54 5.71L152.54 5.71Q152.54 6.43 152.07 7.04L152.07 7.04L152.07 7.04Q151.57 7.66 150.54 7.92L150.54 7.92L153.23 11.49L153.23 11.49Q153.54 11.87 153.83 11.87L153.83 11.87L154.43 11.87L154.46 12.41L152.43 12.41L149.43 8.10L149.26 8.10L149.26 8.10Q149.22 8.10 149.17 8.11L149.17 8.11L149.17 8.11Q149.11 8.11 149.10 8.11L149.10 8.11L149.10 8.11Q148.22 8.11 147.82 8.03L147.82 8.03L147.82 11.46L147.82 11.46Q147.82 11.76 147.96 11.81L147.96 11.81L147.96 11.81Q148.09 11.87 148.79 11.87L148.79 11.87L149.50 11.87L149.47 12.41L145.75 12.41L145.75 11.87L146.07 11.87L146.07 11.87Q146.54 11.87 146.60 11.81L146.60 11.81L146.60 11.81Q146.69 11.74 146.69 11.46L146.69 11.46L146.69 4.14L146.69 4.14Q146.69 3.82 146.49 3.73L146.49 3.73L146.49 3.73Q146.27 3.64 145.84 3.64L145.84 3.64ZM147.82 4.28L147.82 7.57L147.82 7.57Q148.00 7.70 148.72 7.71L148.72 7.71L148.72 7.71Q149.99 7.71 150.57 7.27L150.57 7.27L150.57 7.27Q151.16 6.84 151.16 5.92L151.16 5.92L151.16 5.92Q151.16 4.92 150.38 4.27L150.38 4.27L150.38 4.27Q149.63 3.64 148.24 3.64L148.24 3.64L148.24 3.64Q147.99 3.64 147.91 3.75L147.91 3.75L147.91 3.75Q147.83 3.84 147.82 4.28L147.82 4.28ZM172.06 5.35L171.56 5.33L171.56 5.33Q171.68 4.17 171.77 3.08L171.77 3.08L179.85 3.08L179.85 3.08Q179.76 4.13 179.74 4.53L179.74 4.53L179.74 4.53Q179.70 5.26 179.68 5.32L179.68 5.32L179.18 5.30L179.18 5.30Q179.26 4.34 179.26 4.16L179.26 4.16L179.26 4.16Q179.26 3.88 179.12 3.79L179.12 3.79L179.12 3.79Q178.94 3.69 178.54 3.69L178.54 3.69L176.93 3.69L176.93 3.69Q176.43 3.69 176.31 3.79L176.31 3.79L176.31 3.79Q176.21 3.87 176.20 4.36L176.20 4.36L176.20 11.22L176.20 11.22Q176.20 11.66 176.35 11.76L176.35 11.76L176.35 11.76Q176.50 11.87 177.02 11.87L177.02 11.87L177.58 11.87L177.59 12.41L173.90 12.40L173.90 11.87L174.12 11.87L174.12 11.87Q174.79 11.87 174.93 11.79L174.93 11.79L174.93 11.79Q175.08 11.70 175.08 11.28L175.08 11.28L175.08 4.48L175.08 4.48Q175.08 3.92 174.98 3.80L174.98 3.80L174.98 3.80Q174.88 3.69 174.45 3.69L174.45 3.69L172.98 3.69L172.98 3.69Q172.80 3.69 172.73 3.71L172.73 3.71L172.73 3.71Q172.66 3.72 172.55 3.72L172.55 3.72L172.55 3.72Q172.53 3.72 172.41 3.79L172.41 3.79L172.41 3.79Q172.33 3.84 172.30 3.86L172.30 3.86L172.30 3.86Q172.27 3.88 172.23 3.99L172.23 3.99L172.23 3.99Q172.20 4.05 172.18 4.14L172.18 4.14L172.18 4.14Q172.15 4.21 172.13 4.36L172.13 4.36L172.13 4.36Q172.10 4.59 172.10 4.61L172.10 4.61L172.10 4.61Q172.10 4.80 172.09 4.95L172.09 4.95L172.09 4.95Q172.09 5.02 172.08 5.15L172.08 5.15L172.08 5.15Q172.07 5.29 172.06 5.35L172.06 5.35ZM187.60 12.41L187.58 11.87L187.76 11.87L187.76 11.87Q188.15 11.87 188.28 11.73L188.28 11.73L188.28 11.73Q188.40 11.57 188.73 10.83L188.73 10.83L189.64 8.82L190.22 7.53L190.22 7.53Q190.48 6.97 190.52 6.86L190.52 6.86L190.52 6.86Q190.59 6.70 190.64 6.60L190.64 6.60L190.64 6.60Q190.70 6.51 190.71 6.45L190.71 6.45L190.80 6.21L192.23 2.74L192.53 2.74L192.53 2.74Q193.38 4.98 195.57 10.25L195.57 10.25L195.57 10.25Q196.02 11.34 196.21 11.64L196.21 11.64L196.21 11.64Q196.35 11.87 196.79 11.87L196.79 11.87L197.00 11.87L196.98 12.41L193.79 12.41L193.81 11.87L194.22 11.87L194.22 11.87Q194.84 11.87 194.84 11.70L194.84 11.70L194.84 11.70Q194.84 11.63 194.70 11.27L194.70 11.27L193.66 8.72L190.42 8.72L189.31 11.18L189.31 11.18Q189.17 11.50 189.17 11.63L189.17 11.63L189.17 11.63Q189.17 11.79 189.27 11.83L189.27 11.83L189.27 11.83Q189.36 11.87 189.75 11.87L189.75 11.87L190.32 11.87L190.32 12.41L187.60 12.41ZM192.10 4.79L190.68 8.10L193.42 8.10L192.10 4.79ZM204.70 10.04L204.70 10.04L205.19 9.98L205.38 10.85L205.38 10.85Q205.49 11.33 205.56 11.41L205.56 11.41L205.56 11.41Q205.63 11.49 206.04 11.64L206.04 11.64L206.04 11.64Q206.88 11.95 207.77 11.95L207.77 11.95L207.77 11.95Q208.56 11.95 209.10 11.49L209.10 11.49L209.10 11.49Q209.63 11.04 209.63 10.26L209.63 10.26L209.63 10.26Q209.63 9.65 209.17 9.21L209.17 9.21L209.17 9.21Q208.69 8.76 207.84 8.30L207.84 8.30L207.27 7.98L207.27 7.98Q206.52 7.55 206.29 7.36L206.29 7.36L206.29 7.36Q205.93 7.08 205.61 6.59L205.61 6.59L205.61 6.59Q205.30 6.10 205.30 5.46L205.30 5.46L205.30 5.46Q205.30 4.39 206.14 3.68L206.14 3.68L206.14 3.68Q206.99 2.97 208.09 2.97L208.09 2.97L208.09 2.97Q208.37 2.97 208.72 3.04L208.72 3.04L208.72 3.04Q208.92 3.08 209.25 3.17L209.25 3.17L209.49 3.25L209.49 3.25Q209.59 3.25 209.63 3.16L209.63 3.16L209.63 3.16Q209.69 3.05 209.69 2.98L209.69 2.98L209.70 2.88L210.18 2.85L210.39 5.41L209.88 5.43L209.76 4.18L209.76 4.18Q209.02 3.62 207.85 3.62L207.85 3.62L207.85 3.62Q207.21 3.62 206.71 4.05L206.71 4.05L206.71 4.05Q206.23 4.47 206.23 5.12L206.23 5.12L206.23 5.12Q206.23 5.72 206.68 6.17L206.68 6.17L206.68 6.17Q207.11 6.60 207.98 7.08L207.98 7.08L208.75 7.50L208.75 7.50Q209.70 8.03 210.23 8.59L210.23 8.59L210.23 8.59Q210.77 9.15 210.77 9.92L210.77 9.92L210.77 9.92Q210.77 10.99 209.91 11.76L209.91 11.76L209.91 11.76Q209.04 12.54 207.59 12.54L207.59 12.54L207.59 12.54Q207.03 12.54 206.52 12.41L206.52 12.41L206.52 12.41Q206.02 12.29 205.97 12.29L205.97 12.29L205.97 12.29Q205.71 12.29 205.71 12.58L205.71 12.58L205.73 12.76L205.25 12.80L205.25 12.80Q205.19 12.41 204.70 10.04ZM219.54 3.64L218.95 3.64L218.95 3.08L222.45 3.08L222.45 3.64L222.00 3.64L222.00 3.64Q221.60 3.64 221.50 3.73L221.50 3.73L221.50 3.73Q221.39 3.84 221.39 4.28L221.39 4.28L221.39 7.50L225.48 4.18L225.48 4.18Q225.83 3.89 225.83 3.77L225.83 3.77L225.83 3.77Q225.83 3.64 225.18 3.64L225.18 3.64L224.64 3.64L224.61 3.08L227.96 3.08L227.96 3.64L227.60 3.64L227.60 3.64Q227.17 3.64 226.96 3.76L226.96 3.76L226.96 3.76Q226.79 3.86 225.91 4.55L225.91 4.55L222.74 7.08L226.97 11.49L226.97 11.49Q227.34 11.87 227.58 11.87L227.58 11.87L228.39 11.87L228.36 12.41L226.16 12.41L221.90 7.74L221.39 8.16L221.39 11.22L221.39 11.22Q221.39 11.70 221.56 11.79L221.56 11.79L221.56 11.79Q221.72 11.87 222.49 11.87L222.49 11.87L222.80 11.87L222.80 12.41L219.21 12.41L219.20 11.87L219.58 11.87L219.58 11.87Q220.08 11.87 220.17 11.79L220.17 11.79L220.17 11.79Q220.25 11.70 220.25 11.25L220.25 11.25L220.25 4.14L220.25 4.14Q220.25 3.77 220.15 3.71L220.15 3.71L220.15 3.71Q220.04 3.64 219.54 3.64L219.54 3.64ZM236.09 10.04L236.09 10.04L236.58 9.98L236.77 10.85L236.77 10.85Q236.88 11.33 236.95 11.41L236.95 11.41L236.95 11.41Q237.02 11.49 237.43 11.64L237.43 11.64L237.43 11.64Q238.27 11.95 239.16 11.95L239.16 11.95L239.16 11.95Q239.95 11.95 240.49 11.49L240.49 11.49L240.49 11.49Q241.02 11.04 241.02 10.26L241.02 10.26L241.02 10.26Q241.02 9.65 240.56 9.21L240.56 9.21L240.56 9.21Q240.08 8.76 239.23 8.30L239.23 8.30L238.66 7.98L238.66 7.98Q237.91 7.55 237.68 7.36L237.68 7.36L237.68 7.36Q237.32 7.08 237.01 6.59L237.01 6.59L237.01 6.59Q236.69 6.10 236.69 5.46L236.69 5.46L236.69 5.46Q236.69 4.39 237.54 3.68L237.54 3.68L237.54 3.68Q238.38 2.97 239.48 2.97L239.48 2.97L239.48 2.97Q239.76 2.97 240.11 3.04L240.11 3.04L240.11 3.04Q240.31 3.08 240.65 3.17L240.65 3.17L240.88 3.25L240.88 3.25Q240.98 3.25 241.02 3.16L241.02 3.16L241.02 3.16Q241.08 3.05 241.08 2.98L241.08 2.98L241.09 2.88L241.57 2.85L241.78 5.41L241.27 5.43L241.15 4.18L241.15 4.18Q240.41 3.62 239.24 3.62L239.24 3.62L239.24 3.62Q238.60 3.62 238.10 4.05L238.10 4.05L238.10 4.05Q237.62 4.47 237.62 5.12L237.62 5.12L237.62 5.12Q237.62 5.72 238.07 6.17L238.07 6.17L238.07 6.17Q238.50 6.60 239.37 7.08L239.37 7.08L240.14 7.50L240.14 7.50Q241.09 8.03 241.62 8.59L241.62 8.59L241.62 8.59Q242.16 9.15 242.16 9.92L242.16 9.92L242.16 9.92Q242.16 10.99 241.30 11.76L241.30 11.76L241.30 11.76Q240.43 12.54 238.98 12.54L238.98 12.54L238.98 12.54Q238.42 12.54 237.91 12.41L237.91 12.41L237.91 12.41Q237.41 12.29 237.36 12.29L237.36 12.29L237.36 12.29Q237.10 12.29 237.10 12.58L237.10 12.58L237.12 12.76L236.64 12.80L236.64 12.80Q236.58 12.41 236.09 10.04ZM259.92 3.64L259.91 3.08L267.12 3.08L267.12 3.08Q267.13 4.14 267.19 5.28L267.19 5.28L266.64 5.30L266.64 5.30Q266.63 4.66 266.57 4.25L266.57 4.25L266.57 4.25Q266.53 3.89 266.48 3.80L266.48 3.80L266.48 3.80Q266.42 3.71 266.31 3.69L266.31 3.69L266.31 3.69Q266.21 3.68 265.62 3.68L265.62 3.68L263.25 3.68L263.25 3.68Q262.70 3.68 262.55 3.77L262.55 3.77L262.55 3.77Q262.43 3.86 262.43 4.33L262.43 4.33L262.43 6.28L262.43 6.28Q262.43 6.69 262.49 6.76L262.49 6.76L262.49 6.76Q262.55 6.84 262.90 6.84L262.90 6.84L265.01 6.84L265.01 6.84Q265.37 6.84 265.45 6.73L265.45 6.73L265.45 6.73Q265.54 6.63 265.54 6.14L265.54 6.14L265.54 5.61L266.05 5.63L266.05 8.97L265.54 8.97L265.54 8.24L265.54 8.24Q265.54 7.66 265.47 7.57L265.47 7.57L265.47 7.57Q265.38 7.46 265.04 7.46L265.04 7.46L262.94 7.46L262.94 7.46Q262.60 7.46 262.52 7.54L262.52 7.54L262.52 7.54Q262.43 7.63 262.43 7.89L262.43 7.89L262.43 11.20L262.43 11.20Q262.43 11.57 262.52 11.67L262.52 11.67L262.52 11.67Q262.60 11.77 262.88 11.77L262.88 11.77L262.88 11.77Q265.79 11.75 266.32 11.69L266.32 11.69L266.32 11.69Q266.84 11.63 266.92 11.38L266.92 11.38L266.93 11.36L266.94 11.35L267.16 10.17L267.64 10.25L267.29 12.41L260.19 12.41L260.19 11.87L260.56 11.87L260.56 11.87Q261.12 11.87 261.20 11.80L261.20 11.80L261.20 11.80Q261.30 11.72 261.30 11.33L261.30 11.33L261.30 4.24L261.30 4.24Q261.30 3.82 261.15 3.73L261.15 3.73L261.15 3.73Q260.98 3.64 260.32 3.64L260.32 3.64L259.92 3.64ZM275.53 12.41L275.52 11.87L275.69 11.87L275.69 11.87Q276.08 11.87 276.21 11.73L276.21 11.73L276.21 11.73Q276.33 11.57 276.66 10.83L276.66 10.83L277.57 8.82L278.15 7.53L278.15 7.53Q278.41 6.97 278.46 6.86L278.46 6.86L278.46 6.86Q278.52 6.70 278.57 6.60L278.57 6.60L278.57 6.60Q278.63 6.51 278.64 6.45L278.64 6.45L278.74 6.21L280.16 2.74L280.46 2.74L280.46 2.74Q281.31 4.98 283.50 10.25L283.50 10.25L283.50 10.25Q283.95 11.34 284.14 11.64L284.14 11.64L284.14 11.64Q284.28 11.87 284.72 11.87L284.72 11.87L284.93 11.87L284.92 12.41L281.72 12.41L281.74 11.87L282.15 11.87L282.15 11.87Q282.77 11.87 282.77 11.70L282.77 11.70L282.77 11.70Q282.77 11.63 282.63 11.27L282.63 11.27L281.59 8.72L278.35 8.72L277.24 11.18L277.24 11.18Q277.10 11.50 277.10 11.63L277.10 11.63L277.10 11.63Q277.10 11.79 277.20 11.83L277.20 11.83L277.20 11.83Q277.29 11.87 277.68 11.87L277.68 11.87L278.25 11.87L278.25 12.41L275.53 12.41ZM280.03 4.79L278.61 8.10L281.35 8.10L280.03 4.79ZM292.63 10.04L292.63 10.04L293.13 9.98L293.31 10.85L293.31 10.85Q293.42 11.33 293.49 11.41L293.49 11.41L293.49 11.41Q293.56 11.49 293.97 11.64L293.97 11.64L293.97 11.64Q294.81 11.95 295.70 11.95L295.70 11.95L295.70 11.95Q296.49 11.95 297.03 11.49L297.03 11.49L297.03 11.49Q297.56 11.04 297.56 10.26L297.56 10.26L297.56 10.26Q297.56 9.65 297.10 9.21L297.10 9.21L297.10 9.21Q296.63 8.76 295.77 8.30L295.77 8.30L295.20 7.98L295.20 7.98Q294.45 7.55 294.22 7.36L294.22 7.36L294.22 7.36Q293.86 7.08 293.55 6.59L293.55 6.59L293.55 6.59Q293.23 6.10 293.23 5.46L293.23 5.46L293.23 5.46Q293.23 4.39 294.08 3.68L294.08 3.68L294.08 3.68Q294.92 2.97 296.02 2.97L296.02 2.97L296.02 2.97Q296.30 2.97 296.65 3.04L296.65 3.04L296.65 3.04Q296.85 3.08 297.19 3.17L297.19 3.17L297.42 3.25L297.42 3.25Q297.52 3.25 297.56 3.16L297.56 3.16L297.56 3.16Q297.62 3.05 297.62 2.98L297.62 2.98L297.63 2.88L298.11 2.85L298.32 5.41L297.81 5.43L297.69 4.18L297.69 4.18Q296.95 3.62 295.78 3.62L295.78 3.62L295.78 3.62Q295.14 3.62 294.64 4.05L294.64 4.05L294.64 4.05Q294.16 4.47 294.16 5.12L294.16 5.12L294.16 5.12Q294.16 5.72 294.61 6.17L294.61 6.17L294.61 6.17Q295.04 6.60 295.91 7.08L295.91 7.08L296.68 7.50L296.68 7.50Q297.63 8.03 298.16 8.59L298.16 8.59L298.16 8.59Q298.70 9.15 298.70 9.92L298.70 9.92L298.70 9.92Q298.70 10.99 297.84 11.76L297.84 11.76L297.84 11.76Q296.97 12.54 295.52 12.54L295.52 12.54L295.52 12.54Q294.96 12.54 294.45 12.41L294.45 12.41L294.45 12.41Q293.95 12.29 293.90 12.29L293.90 12.29L293.90 12.29Q293.64 12.29 293.64 12.58L293.64 12.58L293.66 12.76L293.18 12.80L293.18 12.80Q293.12 12.41 292.63 10.04ZM307.47 3.64L306.88 3.64L306.89 3.08L310.41 3.08L310.41 3.64L310.17 3.64L310.17 3.64Q309.63 3.64 309.46 3.73L309.46 3.73L309.46 3.73Q309.32 3.81 309.32 4.28L309.32 4.28L309.32 11.22L309.32 11.22Q309.32 11.68 309.43 11.77L309.43 11.77L309.43 11.77Q309.54 11.87 310.07 11.87L310.07 11.87L310.62 11.87L310.63 12.41L307.05 12.41L307.04 11.87L307.40 11.87L307.40 11.87Q307.96 11.87 308.07 11.77L308.07 11.77L308.07 11.77Q308.18 11.67 308.18 11.25L308.18 11.25L308.18 4.14L308.18 4.14Q308.18 3.77 308.08 3.71L308.08 3.71L308.08 3.71Q307.97 3.64 307.47 3.64L307.47 3.64ZM318.86 3.64L318.37 3.64L318.38 3.08L321.97 3.08L321.97 3.64L321.34 3.64L321.34 3.64Q320.96 3.64 320.85 3.72L320.85 3.72L320.85 3.72Q320.74 3.80 320.74 4.16L320.74 4.16L320.74 11.22L320.74 11.22Q320.74 11.57 320.82 11.67L320.82 11.67L320.82 11.67Q320.91 11.77 321.20 11.77L321.20 11.77L321.20 11.77Q324.07 11.74 324.73 11.63L324.73 11.63L324.73 11.63Q324.94 11.61 325.02 11.39L325.02 11.39L325.02 11.39Q325.10 11.17 325.30 10.05L325.30 10.05L325.79 10.08L325.33 12.41L318.57 12.41L318.55 11.87L318.94 11.87L318.94 11.87Q319.45 11.87 319.52 11.80L319.52 11.80L319.52 11.80Q319.60 11.72 319.61 11.33L319.61 11.33L319.61 4.09L319.61 4.09Q319.61 3.80 319.45 3.72L319.45 3.72L319.45 3.72Q319.30 3.64 318.86 3.64L318.86 3.64ZM333.67 3.64L333.67 3.64L333.68 3.08L336.82 3.08L336.82 3.64L336.54 3.64L336.54 3.64Q336.09 3.64 335.98 3.66L335.98 3.66L335.98 3.66Q335.81 3.71 335.81 3.82L335.81 3.82L335.81 3.82Q335.81 3.89 336.06 4.31L336.06 4.31L338.06 7.46L340.51 3.99L340.51 3.99Q340.59 3.83 340.60 3.82L340.60 3.82L340.60 3.82Q340.60 3.64 339.68 3.64L339.68 3.64L339.47 3.64L339.45 3.08L342.00 3.08L342.00 3.64L341.93 3.64L341.93 3.64Q341.58 3.64 341.43 3.72L341.43 3.72L341.43 3.72Q341.28 3.80 340.99 4.22L340.99 4.22L338.26 8.17L338.26 11.22L338.26 11.22Q338.26 11.66 338.37 11.77L338.37 11.77L338.37 11.77Q338.47 11.87 339.08 11.87L339.08 11.87L339.72 11.87L339.70 12.41L335.77 12.41L335.78 11.87L336.34 11.87L336.34 11.87Q336.88 11.87 337.00 11.79L337.00 11.79L337.00 11.79Q337.13 11.70 337.13 11.25L337.13 11.25L337.13 8.06L334.83 4.49L334.83 4.49Q334.41 3.84 334.28 3.73L334.28 3.73L334.28 3.73Q334.17 3.64 333.67 3.64Z"></path></g></svg>