<svg data-v-423bf9ae="" xmlns="http://www.w3.org/2000/svg" viewBox="0 0 257.3307846257878 60" class="font"><!----><!----><!----><g data-v-423bf9ae="" id="757e6739-c380-459f-8d09-2c2be9a9d3eb" fill="black" transform="matrix(5.71973320392212,0,0,5.71973320392212,-1.5443307717053756,-18.81792202271327)"><path d="M8.89 5.63L8.89 3.92L0.27 3.92L0.27 5.63L3.49 5.63L3.49 13.58L5.67 13.58L5.67 5.63ZM13.38 13.58L15.53 13.58C15.41 12.75 15.39 12.25 15.39 11.69L15.39 9.42C15.39 8.99 15.37 8.57 15.34 8.22C15.23 6.89 14.43 5.92 12.22 5.92C10.40 5.92 8.96 6.89 8.92 8.60L11.02 8.60C11.07 7.85 11.45 7.43 12.14 7.43C12.80 7.43 13.13 7.80 13.17 8.25C13.20 8.50 13.20 8.69 13.20 8.89L13.20 9.02L12.73 9.02C10.09 9.02 8.65 9.97 8.65 11.59C8.65 13.01 9.79 13.78 11.05 13.78C11.73 13.78 12.36 13.62 12.89 13.29L13.23 12.49ZM11.91 12.26C11.31 12.26 10.91 11.97 10.91 11.41C10.91 10.54 11.84 10.21 13.20 10.32L13.20 10.86C13.20 11.79 12.57 12.26 11.91 12.26ZM19.91 5.92C18.03 5.92 16.80 6.82 16.80 8.27C16.80 9.55 17.71 10.18 19.11 10.53C20.43 10.84 20.90 11.13 20.90 11.66C20.90 12.14 20.48 12.36 19.95 12.36C19.33 12.36 18.83 11.98 18.68 11.28L16.51 11.28C16.70 12.96 18.03 13.78 19.94 13.78C21.69 13.78 23.10 13.05 23.10 11.49C23.10 10.09 22.18 9.49 20.73 9.13C19.40 8.79 19.00 8.51 19.00 8.01C19.00 7.62 19.29 7.32 19.77 7.32C20.31 7.32 20.64 7.67 20.76 8.29L22.93 8.29C22.75 6.93 21.71 5.92 19.91 5.92ZM26.98 10.72L29.15 13.58L31.88 13.58L28.60 9.56L31.84 6.12L29.23 6.12L26.40 9.39L26.40 3.29L24.21 3.29L24.21 13.58L26.40 13.58L26.40 11.35ZM39.37 9.72C39.37 7.73 38.14 5.92 35.76 5.92C33.39 5.92 31.89 7.63 31.89 9.87C31.89 12.50 33.53 13.78 35.62 13.78C37.44 13.78 38.84 12.87 39.24 11.14L37.07 11.14C36.95 11.84 36.43 12.26 35.66 12.26C34.83 12.26 34.22 11.84 34.09 10.42L39.33 10.42C39.35 10.15 39.37 9.91 39.37 9.72ZM35.66 7.43C36.47 7.43 36.96 7.98 37.09 9.03L34.15 9.03C34.33 7.92 34.87 7.43 35.66 7.43ZM44.70 5.92C44.27 5.92 43.72 6.12 43.34 6.51L42.78 7.55L42.78 6.12L40.59 6.12L40.59 13.58L42.78 13.58L42.78 10.46C42.78 8.34 43.53 7.64 45.26 7.76L45.26 5.98C45.09 5.95 44.94 5.92 44.70 5.92Z"></path></g><!----><!----></svg>